<svg id="Layer_1" data-name="Layer 1" xmlns="http://www.w3.org/2000/svg" viewBox="0 0 15.81 13.98"><defs><style>.cls-1{fill:#ffdd07;stroke:#000;stroke-miterlimit:10;}</style></defs><rect class="cls-1" x="1.35" y="1.25" width="13.11" height="11.48" rx="2.02"/><path d="M5.29,9.24a3.72,3.72,0,0,1-1.06-.15,2.49,2.49,0,0,1-.8-.35L3.83,8a2.84,2.84,0,0,0,.7.32,2.91,2.91,0,0,0,.82.12,1.42,1.42,0,0,0,.71-.13.41.41,0,0,0,.21-.35.3.3,0,0,0-.15-.28,1,1,0,0,0-.38-.14,3.89,3.89,0,0,0-.53-.09L4.63,7.3a2.09,2.09,0,0,1-.53-.21,1,1,0,0,1-.54-1,1.14,1.14,0,0,1,.24-.73,1.55,1.55,0,0,1,.67-.48,2.87,2.87,0,0,1,1-.17,4.59,4.59,0,0,1,.9.1,2.61,2.61,0,0,1,.75.28l-.4.78a2.4,2.4,0,0,0-.63-.26,3.38,3.38,0,0,0-.63-.07,1.37,1.37,0,0,0-.69.14.42.42,0,0,0-.23.36.32.32,0,0,0,.15.29,1.17,1.17,0,0,0,.39.16,3.64,3.64,0,0,0,.53.09c.19,0,.39.06.58.11a2.44,2.44,0,0,1,.53.21,1,1,0,0,1,.39.35,1.11,1.11,0,0,1,.14.6A1.14,1.14,0,0,1,7,8.6a1.56,1.56,0,0,1-.68.47A3.06,3.06,0,0,1,5.29,9.24Z"/><path d="M10.85,9.24A2.75,2.75,0,0,1,9.57,9,2.17,2.17,0,0,1,8.43,7a2.26,2.26,0,0,1,.29-1.17A2.09,2.09,0,0,1,9.52,5a2.5,2.5,0,0,1,2.32,0,2,2,0,0,1,.78.79A2.32,2.32,0,0,1,12.91,7v.15a.86.86,0,0,0,0,.16H9.24V6.63h3.11l-.4.22a1.33,1.33,0,0,0-.15-.67,1.21,1.21,0,0,0-.45-.45,1.44,1.44,0,0,0-1.32,0,1.15,1.15,0,0,0-.44.46,1.34,1.34,0,0,0-.16.68V7a1.31,1.31,0,0,0,.18.69,1.16,1.16,0,0,0,.51.47,1.66,1.66,0,0,0,.75.17,1.78,1.78,0,0,0,.67-.12,1.43,1.43,0,0,0,.53-.36l.55.63a1.93,1.93,0,0,1-.75.53A2.54,2.54,0,0,1,10.85,9.24Z"/><circle cx="12.23" cy="3.27" r="0.67"/></svg>